<?xml version="1.0" encoding="UTF-8" standalone="no"?><svg xmlns="http://www.w3.org/2000/svg" xmlns:xlink="http://www.w3.org/1999/xlink" contentScriptType="application/ecmascript" contentStyleType="text/css" height="292px" preserveAspectRatio="none" style="width:444px;height:292px;" version="1.1" viewBox="0 0 444 292" width="444px" zoomAndPan="magnify"><defs><filter height="300%" id="f1wpfv0xl2ubww" width="300%" x="-1" y="-1"><feGaussianBlur result="blurOut" stdDeviation="2.0"/><feColorMatrix in="blurOut" result="blurOut2" type="matrix" values="0 0 0 0 0 0 0 0 0 0 0 0 0 0 0 0 0 0 .4 0"/><feOffset dx="4.0" dy="4.0" in="blurOut2" result="blurOut3"/><feBlend in="SourceGraphic" in2="blurOut3" mode="normal"/></filter></defs><g><rect fill="#FEFECE" filter="url(#f1wpfv0xl2ubww)" height="50" rx="12.5" ry="12.5" style="stroke: #A80036; stroke-width: 1.5;" width="50" x="134.65" y="89"/><line style="stroke: #A80036; stroke-width: 1.5;" x1="134.65" x2="184.65" y1="115.2969" y2="115.2969"/><text fill="#000000" font-family="sans-serif" font-size="14" lengthAdjust="spacingAndGlyphs" textLength="30" x="144.65" y="106.9951">IDLE</text><rect fill="#FEFECE" filter="url(#f1wpfv0xl2ubww)" height="50" rx="12.5" ry="12.5" style="stroke: #A80036; stroke-width: 1.5;" width="170" x="74.65" y="231"/><line style="stroke: #A80036; stroke-width: 1.5;" x1="74.65" x2="244.65" y1="257.2969" y2="257.2969"/><text fill="#000000" font-family="sans-serif" font-size="14" lengthAdjust="spacingAndGlyphs" textLength="150" x="84.65" y="248.9951">AWAITING_RESPONSE</text><ellipse cx="159.65" cy="18" fill="#000000" filter="url(#f1wpfv0xl2ubww)" rx="10" ry="10" style="stroke: none; stroke-width: 1.0;"/><!--link *start to IDLE--><path d="M159.65,28.01 C159.65,40.7 159.65,64.41 159.65,83.57 " fill="none" id="*start-IDLE" style="stroke: #A80036; stroke-width: 1.0;"/><polygon fill="#A80036" points="159.65,88.84,163.65,79.84,159.65,83.84,155.65,79.84,159.65,88.84" style="stroke: #A80036; stroke-width: 1.0;"/><!--link IDLE to AWAITING_RESPONSE--><path d="M134.45,115.96 C100.26,118.77 40.27,129.43 12.65,169 C-8.94,199.93 27.5,221.39 69.49,235.14 " fill="none" id="IDLE-AWAITING_RESPONSE" style="stroke: #A80036; stroke-width: 1.0;"/><polygon fill="#A80036" points="74.37,236.7,67.0251,230.1385,69.6097,235.1704,64.5778,237.755,74.37,236.7" style="stroke: #A80036; stroke-width: 1.0;"/><text fill="#000000" font-family="sans-serif" font-size="13" lengthAdjust="spacingAndGlyphs" textLength="247" x="13.65" y="182.0669">Event: ESTABLISH_SESSION_REQUEST</text><text fill="#000000" font-family="sans-serif" font-size="13" lengthAdjust="spacingAndGlyphs" textLength="174" x="50.15" y="197.1997">Action: sendStep0Message</text><!--link AWAITING_RESPONSE to IDLE--><path d="M233.44,230.9 C246.26,223.36 257.93,213.59 265.65,201 C273.08,188.87 273.08,181.13 265.65,169 C249.26,142.26 215.01,128.24 189.86,121.26 " fill="none" id="AWAITING_RESPONSE-IDLE" style="stroke: #A80036; stroke-width: 1.0;"/><polygon fill="#A80036" points="184.96,119.96,192.6277,126.1411,189.7916,121.2465,194.6862,118.4104,184.96,119.96" style="stroke: #A80036; stroke-width: 1.0;"/><text fill="#000000" font-family="sans-serif" font-size="13" lengthAdjust="spacingAndGlyphs" textLength="161" x="271.65" y="182.0669">Event: STEP1_RESPONSE</text><text fill="#000000" font-family="sans-serif" font-size="13" lengthAdjust="spacingAndGlyphs" textLength="125" x="289.65" y="197.1997">Action: notifyParent</text><!--link AWAITING_RESPONSE to AWAITING_RESPONSE--><path d="M244.86,243.13 C264.88,244.19 279.65,248.48 279.65,256 C279.65,262.87 267.31,267.05 249.9,268.52 " fill="none" id="AWAITING_RESPONSE-AWAITING_RESPONSE" style="stroke: #A80036; stroke-width: 1.0;"/><polygon fill="#A80036" points="244.86,268.87,254.1132,272.2431,249.8482,268.527,253.5644,264.262,244.86,268.87" style="stroke: #A80036; stroke-width: 1.0;"/><text fill="#000000" font-family="sans-serif" font-size="13" lengthAdjust="spacingAndGlyphs" textLength="117" x="290.15" y="253.0669">STEP0_RESPONSE</text><text fill="#000000" font-family="sans-serif" font-size="13" lengthAdjust="spacingAndGlyphs" textLength="126" x="285.65" y="268.1997">sendStep1Message</text><!--
@startuml
state IDLE
state AWAITING_RESPONSE

[*] - -> IDLE
IDLE - -> AWAITING_RESPONSE : Event: ESTABLISH_SESSION_REQUEST\nAction: sendStep0Message
AWAITING_RESPONSE - -> IDLE : Event: STEP1_RESPONSE\nAction: notifyParent
AWAITING_RESPONSE - -> AWAITING_RESPONSE : STEP0_RESPONSE\nsendStep1Message
@enduml

PlantUML version 1.2018.13(Mon Nov 26 12:11:51 EST 2018)
(GPL source distribution)
Java Runtime: OpenJDK Runtime Environment
JVM: OpenJDK 64-Bit Server VM
Java Version: 11.0.17+8-post-Ubuntu-1ubuntu220.04
Operating System: Linux
OS Version: 5.10.102.1-microsoft-standard-WSL2
Default Encoding: UTF-8
Language: en
Country: null
--></g></svg>