<?xml version="1.0" encoding="UTF-8" standalone="no"?><svg xmlns="http://www.w3.org/2000/svg" xmlns:xlink="http://www.w3.org/1999/xlink" contentScriptType="application/ecmascript" contentStyleType="text/css" height="434px" preserveAspectRatio="none" style="width:898px;height:434px;" version="1.1" viewBox="0 0 898 434" width="898px" zoomAndPan="magnify"><defs><filter height="300%" id="fpshqc4j1yqat" width="300%" x="-1" y="-1"><feGaussianBlur result="blurOut" stdDeviation="2.0"/><feColorMatrix in="blurOut" result="blurOut2" type="matrix" values="0 0 0 0 0 0 0 0 0 0 0 0 0 0 0 0 0 0 .4 0"/><feOffset dx="4.0" dy="4.0" in="blurOut2" result="blurOut3"/><feBlend in="SourceGraphic" in2="blurOut3" mode="normal"/></filter></defs><g><rect fill="#FEFECE" filter="url(#fpshqc4j1yqat)" height="50" rx="12.5" ry="12.5" style="stroke: #A80036; stroke-width: 1.5;" width="50" x="463" y="89"/><line style="stroke: #A80036; stroke-width: 1.5;" x1="463" x2="513" y1="115.2969" y2="115.2969"/><text fill="#000000" font-family="sans-serif" font-size="14" lengthAdjust="spacingAndGlyphs" textLength="30" x="473" y="106.9951">IDLE</text><rect fill="#FEFECE" filter="url(#fpshqc4j1yqat)" height="50.2656" rx="12.5" ry="12.5" style="stroke: #A80036; stroke-width: 1.5;" width="442" x="6" y="231"/><line style="stroke: #A80036; stroke-width: 1.5;" x1="6" x2="448" y1="257.2969" y2="257.2969"/><text fill="#000000" font-family="sans-serif" font-size="14" lengthAdjust="spacingAndGlyphs" textLength="166" x="144" y="248.9951">ESTABLISHING_SESSION</text><text fill="#000000" font-family="sans-serif" font-size="12" lengthAdjust="spacingAndGlyphs" textLength="422" x="11" y="273.4355">The work in this state is done by the establishSession sub-machine</text><rect fill="#FEFECE" filter="url(#fpshqc4j1yqat)" height="50" rx="12.5" ry="12.5" style="stroke: #A80036; stroke-width: 1.5;" width="100" x="432" y="373"/><line style="stroke: #A80036; stroke-width: 1.5;" x1="432" x2="532" y1="399.2969" y2="399.2969"/><text fill="#000000" font-family="sans-serif" font-size="14" lengthAdjust="spacingAndGlyphs" textLength="80" x="442" y="390.9951">IN_SESSION</text><ellipse cx="488" cy="18" fill="#000000" filter="url(#fpshqc4j1yqat)" rx="10" ry="10" style="stroke: none; stroke-width: 1.0;"/><!--link *start to IDLE--><path d="M488,28.01 C488,40.7 488,64.41 488,83.57 " fill="none" id="*start-IDLE" style="stroke: #A80036; stroke-width: 1.0;"/><polygon fill="#A80036" points="488,88.84,492,79.84,488,83.84,484,79.84,488,88.84" style="stroke: #A80036; stroke-width: 1.0;"/><!--link IDLE to ESTABLISHING_SESSION--><path d="M462.6,116.25 C402.43,119.81 254.02,132.21 224,169 C211.31,184.55 212.77,207.47 217.02,225.74 " fill="none" id="IDLE-ESTABLISHING_SESSION" style="stroke: #A80036; stroke-width: 1.0;"/><polygon fill="#A80036" points="218.28,230.76,219.9509,221.0539,217.0539,225.9127,212.1952,223.0157,218.28,230.76" style="stroke: #A80036; stroke-width: 1.0;"/><text fill="#000000" font-family="sans-serif" font-size="13" lengthAdjust="spacingAndGlyphs" textLength="152" x="258.5" y="182.0669">Event: SEND_MESSAGE</text><text fill="#000000" font-family="sans-serif" font-size="13" lengthAdjust="spacingAndGlyphs" textLength="219" x="225" y="197.1997">Action: startSessionEstablishment</text><!--link ESTABLISHING_SESSION to IDLE--><path d="M397.23,230.95 C415.95,223.42 433.73,213.65 449,201 C466.19,186.76 476.13,163.33 481.67,144.52 " fill="none" id="ESTABLISHING_SESSION-IDLE" style="stroke: #A80036; stroke-width: 1.0;"/><polygon fill="#A80036" points="483.11,139.35,476.839,146.9444,481.7666,144.1662,484.5448,149.0938,483.11,139.35" style="stroke: #A80036; stroke-width: 1.0;"/><text fill="#000000" font-family="sans-serif" font-size="13" lengthAdjust="spacingAndGlyphs" textLength="165" x="483" y="182.0669">Event: SESSION_TIMEOUT</text><text fill="#000000" font-family="sans-serif" font-size="13" lengthAdjust="spacingAndGlyphs" textLength="185" x="473" y="197.1997">Action: notifySessionTimeout</text><!--link ESTABLISHING_SESSION to IN_SESSION--><path d="M270.84,281.07 C316.08,305.91 386.5,344.57 433.42,370.33 " fill="none" id="ESTABLISHING_SESSION-IN_SESSION" style="stroke: #A80036; stroke-width: 1.0;"/><polygon fill="#A80036" points="437.88,372.78,431.9051,364.9506,433.4938,370.3797,428.0646,371.9685,437.88,372.78" style="stroke: #A80036; stroke-width: 1.0;"/><text fill="#000000" font-family="sans-serif" font-size="13" lengthAdjust="spacingAndGlyphs" textLength="198" x="379" y="324.0669">Event: SESSION_ESTABLISHED</text><text fill="#000000" font-family="sans-serif" font-size="13" lengthAdjust="spacingAndGlyphs" textLength="190" x="383" y="339.1997">Action: completeSessionStart</text><!--link ESTABLISHING_SESSION to ESTABLISHING_SESSION--><path d="M448.2,245.39 C469.5,247.54 483,251.08 483,256 C483,260.5 471.72,263.84 453.51,266.03 " fill="none" id="ESTABLISHING_SESSION-ESTABLISHING_SESSION" style="stroke: #A80036; stroke-width: 1.0;"/><polygon fill="#A80036" points="448.2,266.61,457.5904,269.5798,453.1687,266.0516,456.6969,261.6298,448.2,266.61" style="stroke: #A80036; stroke-width: 1.0;"/><text fill="#000000" font-family="sans-serif" font-size="13" lengthAdjust="spacingAndGlyphs" textLength="108" x="530" y="253.0669">SEND_MESSAGE</text><text fill="#000000" font-family="sans-serif" font-size="13" lengthAdjust="spacingAndGlyphs" textLength="190" x="489" y="268.1997">requestMessageTransmission</text><!--link IN_SESSION to IDLE--><path d="M532.25,384.61 C581.64,369.42 654.1,338.31 686,281 C710.55,236.88 702.78,204.62 667,169 C626.71,128.89 557.77,118.39 518.24,115.75 " fill="none" id="IN_SESSION-IDLE" style="stroke: #A80036; stroke-width: 1.0;"/><polygon fill="#A80036" points="513.1,115.44,521.8435,119.9733,518.091,115.7403,522.324,111.9878,513.1,115.44" style="stroke: #A80036; stroke-width: 1.0;"/><text fill="#000000" font-family="sans-serif" font-size="13" lengthAdjust="spacingAndGlyphs" textLength="165" x="711" y="253.0669">Event: SESSION_TIMEOUT</text><text fill="#000000" font-family="sans-serif" font-size="13" lengthAdjust="spacingAndGlyphs" textLength="185" x="701" y="268.1997">Action: notifySessionTimeout</text><!--link IN_SESSION to IN_SESSION--><path d="M532.19,384.91 C551.24,384.41 567,388.77 567,398 C567,406.36 554.06,410.73 537.45,411.1 " fill="none" id="IN_SESSION-IN_SESSION" style="stroke: #A80036; stroke-width: 1.0;"/><polygon fill="#A80036" points="532.19,411.09,541.19,415.09,537.19,411.09,541.19,407.09,532.19,411.09" style="stroke: #A80036; stroke-width: 1.0;"/><text fill="#000000" font-family="sans-serif" font-size="13" lengthAdjust="spacingAndGlyphs" textLength="108" x="614" y="395.0669">SEND_MESSAGE</text><text fill="#000000" font-family="sans-serif" font-size="13" lengthAdjust="spacingAndGlyphs" textLength="190" x="573" y="410.1997">requestMessageTransmission</text><!--
@startuml
state IDLE
state ESTABLISHING_SESSION
state IN_SESSION
ESTABLISHING_SESSION:  The work in this state is done by the establishSession sub-machine 

[*] - -> IDLE
IDLE - -> ESTABLISHING_SESSION : Event: SEND_MESSAGE\nAction: startSessionEstablishment
ESTABLISHING_SESSION - -> IN_SESSION : Event: SESSION_ESTABLISHED\nAction: completeSessionStart
ESTABLISHING_SESSION - -> IDLE : Event: SESSION_TIMEOUT\nAction: notifySessionTimeout
ESTABLISHING_SESSION - -> ESTABLISHING_SESSION : SEND_MESSAGE\nrequestMessageTransmission
IN_SESSION - -> IDLE : Event: SESSION_TIMEOUT\nAction: notifySessionTimeout
IN_SESSION - -> IN_SESSION : SEND_MESSAGE\nrequestMessageTransmission
@enduml

PlantUML version 1.2018.13(Mon Nov 26 12:11:51 EST 2018)
(GPL source distribution)
Java Runtime: OpenJDK Runtime Environment
JVM: OpenJDK 64-Bit Server VM
Java Version: 11.0.17+8-post-Ubuntu-1ubuntu220.04
Operating System: Linux
OS Version: 5.10.102.1-microsoft-standard-WSL2
Default Encoding: UTF-8
Language: en
Country: null
--></g></svg>