<?xml version="1.0" encoding="UTF-8" standalone="no"?><svg xmlns="http://www.w3.org/2000/svg" xmlns:xlink="http://www.w3.org/1999/xlink" contentScriptType="application/ecmascript" contentStyleType="text/css" height="434px" preserveAspectRatio="none" style="width:621px;height:434px;" version="1.1" viewBox="0 0 621 434" width="621px" zoomAndPan="magnify"><defs><filter height="300%" id="f1emj9l4aptfe4" width="300%" x="-1" y="-1"><feGaussianBlur result="blurOut" stdDeviation="2.0"/><feColorMatrix in="blurOut" result="blurOut2" type="matrix" values="0 0 0 0 0 0 0 0 0 0 0 0 0 0 0 0 0 0 .4 0"/><feOffset dx="4.0" dy="4.0" in="blurOut2" result="blurOut3"/><feBlend in="SourceGraphic" in2="blurOut3" mode="normal"/></filter></defs><g><rect fill="#FEFECE" filter="url(#f1emj9l4aptfe4)" height="50" rx="12.5" ry="12.5" style="stroke: #A80036; stroke-width: 1.5;" width="50" x="232.49" y="89"/><line style="stroke: #A80036; stroke-width: 1.5;" x1="232.49" x2="282.49" y1="115.2969" y2="115.2969"/><text fill="#000000" font-family="sans-serif" font-size="14" lengthAdjust="spacingAndGlyphs" textLength="30" x="242.49" y="106.9951">IDLE</text><rect fill="#FEFECE" filter="url(#f1emj9l4aptfe4)" height="50" rx="12.5" ry="12.5" style="stroke: #A80036; stroke-width: 1.5;" width="100" x="129.49" y="231"/><line style="stroke: #A80036; stroke-width: 1.5;" x1="129.49" x2="229.49" y1="257.2969" y2="257.2969"/><text fill="#000000" font-family="sans-serif" font-size="14" lengthAdjust="spacingAndGlyphs" textLength="80" x="139.49" y="248.9951">IN_SESSION</text><rect fill="#FEFECE" filter="url(#f1emj9l4aptfe4)" height="50" rx="12.5" ry="12.5" style="stroke: #A80036; stroke-width: 1.5;" width="122" x="234.49" y="373"/><line style="stroke: #A80036; stroke-width: 1.5;" x1="234.49" x2="356.49" y1="399.2969" y2="399.2969"/><text fill="#000000" font-family="sans-serif" font-size="14" lengthAdjust="spacingAndGlyphs" textLength="102" x="244.49" y="390.9951">AWAITING_ACK</text><ellipse cx="257.49" cy="18" fill="#000000" filter="url(#f1emj9l4aptfe4)" rx="10" ry="10" style="stroke: none; stroke-width: 1.0;"/><!--link *start to IDLE--><path d="M257.49,28.01 C257.49,40.7 257.49,64.41 257.49,83.57 " fill="none" id="*start-IDLE" style="stroke: #A80036; stroke-width: 1.0;"/><polygon fill="#A80036" points="257.49,88.84,261.49,79.84,257.49,83.84,253.49,79.84,257.49,88.84" style="stroke: #A80036; stroke-width: 1.0;"/><!--link IDLE to IN_SESSION--><path d="M232.42,116.72 C175.97,121.15 41.66,135.12 14.49,169 C-19.82,211.77 63.89,235.63 124.21,246.85 " fill="none" id="IDLE-IN_SESSION" style="stroke: #A80036; stroke-width: 1.0;"/><polygon fill="#A80036" points="129.24,247.77,121.0894,242.2412,124.3188,246.8856,119.6744,250.115,129.24,247.77" style="stroke: #A80036; stroke-width: 1.0;"/><text fill="#000000" font-family="sans-serif" font-size="13" lengthAdjust="spacingAndGlyphs" textLength="198" x="15.49" y="182.0669">Event: SESSION_ESTABLISHED</text><text fill="#000000" font-family="sans-serif" font-size="13" lengthAdjust="spacingAndGlyphs" textLength="127" x="50.99" y="197.1997">Action: checkQueue</text><!--link IN_SESSION to IDLE--><path d="M198.42,230.96 C205.17,221.85 212.57,211.2 218.49,201 C229.09,182.72 238.9,161.05 246.03,144.04 " fill="none" id="IN_SESSION-IDLE" style="stroke: #A80036; stroke-width: 1.0;"/><polygon fill="#A80036" points="247.97,139.37,240.8162,146.1392,246.0469,143.9854,248.2008,149.2162,247.97,139.37" style="stroke: #A80036; stroke-width: 1.0;"/><text fill="#000000" font-family="sans-serif" font-size="13" lengthAdjust="spacingAndGlyphs" textLength="165" x="235.49" y="182.0669">Event: SESSION_TIMEOUT</text><text fill="#000000" font-family="sans-serif" font-size="13" lengthAdjust="spacingAndGlyphs" textLength="44" x="295.99" y="197.1997">Action:</text><!--link IDLE to IDLE--><path d="M282.76,104.86 C300.26,102.1 317.49,105.14 317.49,114 C317.49,121.96 303.58,125.23 288.07,123.8 " fill="none" id="IDLE-IDLE" style="stroke: #A80036; stroke-width: 1.0;"/><polygon fill="#A80036" points="282.76,123.14,291.1998,128.2164,287.722,123.7549,292.1836,120.2772,282.76,123.14" style="stroke: #A80036; stroke-width: 1.0;"/><text fill="#000000" font-family="sans-serif" font-size="13" lengthAdjust="spacingAndGlyphs" textLength="108" x="323.49" y="111.0669">SEND_MESSAGE</text><text fill="#000000" font-family="sans-serif" font-size="13" lengthAdjust="spacingAndGlyphs" textLength="97" x="328.99" y="126.1997">queueMessage</text><!--link IN_SESSION to AWAITING_ACK--><path d="M131.91,281.17 C105.66,297.77 81.51,320.74 98.49,343 C114.5,363.99 178.52,378.83 229.29,387.57 " fill="none" id="IN_SESSION-AWAITING_ACK" style="stroke: #A80036; stroke-width: 1.0;"/><polygon fill="#A80036" points="234.47,388.45,226.2731,382.9901,229.5415,387.6072,224.9245,390.8757,234.47,388.45" style="stroke: #A80036; stroke-width: 1.0;"/><text fill="#000000" font-family="sans-serif" font-size="13" lengthAdjust="spacingAndGlyphs" textLength="152" x="99.49" y="324.0669">Event: SEND_MESSAGE</text><text fill="#000000" font-family="sans-serif" font-size="13" lengthAdjust="spacingAndGlyphs" textLength="136" x="107.49" y="339.1997">Action: sendMessage</text><!--link AWAITING_ACK to IN_SESSION--><path d="M288.41,372.84 C282.16,354.46 271.66,329.3 256.49,311 C248.11,300.9 237.41,291.83 226.67,284.12 " fill="none" id="AWAITING_ACK-IN_SESSION" style="stroke: #A80036; stroke-width: 1.0;"/><polygon fill="#A80036" points="222.39,281.13,227.4673,289.5693,226.4855,283.9983,232.0565,283.0165,222.39,281.13" style="stroke: #A80036; stroke-width: 1.0;"/><text fill="#000000" font-family="sans-serif" font-size="13" lengthAdjust="spacingAndGlyphs" textLength="70" x="304.99" y="324.0669">Event: ACK</text><text fill="#000000" font-family="sans-serif" font-size="13" lengthAdjust="spacingAndGlyphs" textLength="127" x="276.49" y="339.1997">Action: checkQueue</text><!--link AWAITING_ACK to IDLE--><path d="M356.68,383.34 C378.08,375.31 399.89,362.69 412.49,343 C454.17,277.85 454.76,231.71 409.49,169 C381.52,130.26 323.32,119.17 287.6,116.09 " fill="none" id="AWAITING_ACK-IDLE" style="stroke: #A80036; stroke-width: 1.0;"/><polygon fill="#A80036" points="282.5,115.69,291.1513,120.3969,287.484,116.0899,291.7911,112.4226,282.5,115.69" style="stroke: #A80036; stroke-width: 1.0;"/><text fill="#000000" font-family="sans-serif" font-size="13" lengthAdjust="spacingAndGlyphs" textLength="165" x="444.49" y="253.0669">Event: SESSION_TIMEOUT</text><text fill="#000000" font-family="sans-serif" font-size="13" lengthAdjust="spacingAndGlyphs" textLength="44" x="504.99" y="268.1997">Action:</text><!--link AWAITING_ACK to AWAITING_ACK--><path d="M356.89,384.88 C376.23,385.08 391.49,389.46 391.49,398 C391.49,405.74 378.95,410.06 362.21,410.95 " fill="none" id="AWAITING_ACK-AWAITING_ACK" style="stroke: #A80036; stroke-width: 1.0;"/><polygon fill="#A80036" points="356.89,411.12,366.0112,414.8353,361.8875,410.9629,365.7599,406.8393,356.89,411.12" style="stroke: #A80036; stroke-width: 1.0;"/><text fill="#000000" font-family="sans-serif" font-size="13" lengthAdjust="spacingAndGlyphs" textLength="108" x="397.49" y="395.0669">SEND_MESSAGE</text><text fill="#000000" font-family="sans-serif" font-size="13" lengthAdjust="spacingAndGlyphs" textLength="97" x="402.99" y="410.1997">queueMessage</text><!--
@startuml
state IDLE
state IN_SESSION
state AWAITING_ACK

[*] - -> IDLE
IDLE - -> IN_SESSION : Event: SESSION_ESTABLISHED\nAction: checkQueue
IDLE - -> IDLE : SEND_MESSAGE\nqueueMessage
IN_SESSION - -> AWAITING_ACK : Event: SEND_MESSAGE\nAction: sendMessage
IN_SESSION - -> IDLE : Event: SESSION_TIMEOUT\nAction: 
AWAITING_ACK - -> IN_SESSION : Event: ACK\nAction: checkQueue
AWAITING_ACK - -> IDLE : Event: SESSION_TIMEOUT\nAction: 
AWAITING_ACK - -> AWAITING_ACK : SEND_MESSAGE\nqueueMessage
@enduml

PlantUML version 1.2018.13(Mon Nov 26 12:11:51 EST 2018)
(GPL source distribution)
Java Runtime: OpenJDK Runtime Environment
JVM: OpenJDK 64-Bit Server VM
Java Version: 11.0.17+8-post-Ubuntu-1ubuntu220.04
Operating System: Linux
OS Version: 5.10.102.1-microsoft-standard-WSL2
Default Encoding: UTF-8
Language: en
Country: null
--></g></svg>